
<svg version="1.1" xmlns="http://www.w3.org/2000/svg" xmlns:xlink="http://www.w3.org/1999/xlink" x="0px" y="0px"
	 width="400px" height="300px" viewBox="0 0 400 300" enable-background="new 0 0 400 300" xml:space="preserve">
	<path fill="#BA1D06" d="M386,219.69c-11.75-34.19-30-127-30-127l-0.33,0.34c-3.89-46.12-42.55-82.34-89.67-82.34h-66h-66
		c-47.12,0-85.78,36.22-89.67,82.34L44,92.69c0,0-18.25,92.81-30,127c-4.35,12.64-16,49,15,65c32.21,16.63,54-17,54-17l49-84h68h68
		l49,84c0,0,21.79,33.63,54,17C402,268.69,390.35,232.34,386,219.69z"/>
	<path fill="#ED2D19" d="M200,183.69h-73c-45.84,0-83-37.16-83-83v0c0-49.71,40.29-90,90-90h66V183.69z"/>
	<path fill="#801A0E" d="M161.5,85.69H143v-18.5c0-6.35-5.15-11.5-11.5-11.5S120,60.84,120,67.19v18.5h-18.5
		c-6.35,0-11.5,5.15-11.5,11.5c0,6.35,5.15,11.5,11.5,11.5H120v18.5c0,6.35,5.15,11.5,11.5,11.5s11.5-5.15,11.5-11.5v-18.5h18.5
		c6.35,0,11.5-5.15,11.5-11.5C173,90.84,167.85,85.69,161.5,85.69z"/>
	<circle fill="#661103" cx="238.5" cy="97.19" r="11.5"/>
	<circle fill="#661103" cx="298.5" cy="97.19" r="11.5"/>
	<circle fill="#661103" cx="268.5" cy="67.19" r="11.5"/>
	<circle fill="#661103" cx="268.5" cy="127.19" r="11.5"/>
</svg>
